#N canvas 64 380 407 394 10;
#X obj 125 239 mtof;
#X obj 125 215 nbx 5 14 -1e+37 1e+37 0 1 empty empty empty 0 -8 0 10
-262144 -1 -1 66 256;
#X obj 36 158 inlet;
#X text 83 157 < float >;
#X obj 103 265 vcf~ \$3;
#X obj 274 158 inlet;
#X text 318 157 < float >;
#X text 32 21 Inlet 1: timing interval;
#X text 32 39 Inlet 2: filter coefficent;
#X text 32 75 Arguments: < filter change time >;
#X text 98 92 < filter bandwidth >;
#X text 98 108 < 2nd filter width >;
#X obj 103 364 throw~ l_fx;
#X obj 178 364 throw~ r_fx;
#X obj 36 189 stream~ \$1 \$2 \$4;
#X obj 279 308 throw~ out3;
#X obj 9 258 throw~ out2;
#X obj 103 338 autopan;
#X connect 0 0 4 1;
#X connect 1 0 0 0;
#X connect 2 0 14 0;
#X connect 4 0 17 0;
#X connect 4 0 15 0;
#X connect 5 0 1 0;
#X connect 14 0 4 0;
#X connect 14 0 16 0;
#X connect 17 0 12 0;
#X connect 17 1 13 0;
