#N canvas 68 382 325 451 10;
#X obj 35 66 random \$1;
#X obj 64 352 mod \$1;
#X obj 58 133 == -1;
#X obj 35 157 swap;
#X obj 35 181 pack f f;
#X obj 35 204 route 0 1;
#X obj 64 230 t f b;
#X obj 64 325 +;
#X obj 35 18 inlet;
#X obj 261 28 inlet;
#X obj 35 40 route reset;
#X obj 95 90 bang;
#X msg 95 111 -1;
#X obj 35 92 t f f;
#X obj 35 413 outlet;
#X obj 35 378 t f f;
#X obj 131 228 - 1;
#X obj 131 205 f \$1;
#X obj 94 254 random;
#X obj 108 180 loadbang;
#X obj 94 276 + 1;
#X connect 0 0 13 0;
#X connect 1 0 15 0;
#X connect 2 0 3 1;
#X connect 3 0 4 0;
#X connect 3 1 4 1;
#X connect 4 0 5 0;
#X connect 5 0 15 0;
#X connect 5 1 6 0;
#X connect 6 0 7 0;
#X connect 6 1 18 0;
#X connect 7 0 1 0;
#X connect 8 0 10 0;
#X connect 9 0 0 1;
#X connect 9 0 17 0;
#X connect 9 0 1 1;
#X connect 10 0 11 0;
#X connect 10 1 0 0;
#X connect 11 0 12 0;
#X connect 12 0 2 1;
#X connect 13 0 3 0;
#X connect 13 1 2 0;
#X connect 15 0 14 0;
#X connect 15 1 2 1;
#X connect 16 0 18 1;
#X connect 17 0 16 0;
#X connect 18 0 20 0;
#X connect 19 0 17 0;
#X connect 20 0 7 1;
