#N canvas 166 130 545 575 10;
#X obj 59 201 noise~;
#X obj 126 255 vline~;
#X obj 103 174 random \$1;
#X obj 108 118 metro;
#X obj 200 29 inlet;
#X obj 136 62 random;
#X msg 113 37 1000;
#X obj 101 430 outlet~;
#X obj 193 192 random \$1;
#X obj 193 169 del;
#X obj 172 107 / 2;
#X obj 102 282 vcf~ \$2 5;
#X msg 126 228 \$1 5;
#X msg 194 219 \$1 10;
#X obj 169 355 *~;
#X obj 198 324 osc~;
#X floatatom 328 193 5 0 0 0 - - -;
#X obj 269 265 / 100;
#X floatatom 194 259 5 0 0 0 - - -;
#X obj 325 356 s randomVal-\$3;
#X obj 34 342 s filterVal-\$3;
#X obj 84 2 r init;
#X obj 23 281 throw~ out0;
#X obj 259 392 throw~ out1;
#X connect 0 0 11 0;
#X connect 0 0 22 0;
#X connect 1 0 11 1;
#X connect 2 0 12 0;
#X connect 3 0 2 0;
#X connect 3 0 5 0;
#X connect 3 0 9 0;
#X connect 4 0 5 1;
#X connect 5 0 3 1;
#X connect 5 0 10 0;
#X connect 5 0 16 0;
#X connect 6 0 3 1;
#X connect 8 0 13 0;
#X connect 9 0 8 0;
#X connect 10 0 9 1;
#X connect 11 0 14 0;
#X connect 11 0 23 0;
#X connect 12 0 1 0;
#X connect 13 0 1 0;
#X connect 13 0 18 0;
#X connect 13 0 20 0;
#X connect 14 0 7 0;
#X connect 15 0 14 1;
#X connect 16 0 17 0;
#X connect 17 0 15 0;
#X connect 17 0 19 0;
#X connect 21 0 3 0;
#X connect 21 0 6 0;
