#N canvas 422 42 768 667 10;
#X obj 296 37 s init;
#X obj 321 13 bng 15 250 50 0 empty empty empty 17 7 0 10 -262144 -1
-1;
#N canvas 674 87 624 427 scaling 0;
#N canvas 0 22 450 300 (subpatch) 0;
#X array scale 7 float 1;
#A 0 0 3 5 7 9 11 14;
#X coords 0 12 6 0 50 100 1 0 0;
#X restore 456 178 graph;
#X text 351 134 scale the whole instrument;
#X text 352 179 / calm;
#X text 352 213 / spastik;
#X text 353 248 / subconscious;
#X msg 183 275 \; scale 0 0 3 5 7 9 11 14 16;
#X msg 183 241 \; scale 0 2 4 6 8 10 12 14 16;
#X msg 183 208 \; scale 0 0 3 6 9 12 15 18 21;
#X msg 183 175 \; scale 0 0 2 3 5 7 8 10 12;
#X text 355 279 / melange;
#X obj 183 157 bng 15 250 50 0 empty empty empty 17 7 0 10 -262144
-1 -1;
#X obj 202 157 bng 15 250 50 0 empty empty empty 17 7 0 10 -262144
-1 -1;
#X obj 222 157 bng 15 250 50 0 empty empty empty 17 7 0 10 -262144
-1 -1;
#X obj 241 157 bng 15 250 50 0 empty empty empty 17 7 0 10 -262144
-1 -1;
#X obj 260 157 bng 15 250 50 0 empty empty empty 17 7 0 10 -262144
-1 -1;
#X obj 183 137 route 0 1 2 3;
#X obj 183 110 random 4;
#X obj 202 70 r startAll;
#X obj 138 18 r init;
#X obj 138 80 bng 15 250 50 0 empty empty empty 17 7 0 10 -262144 -1
-1;
#X obj 187 50 r switchMode;
#X obj 267 137 s X-switch;
#X obj 187 92 bng 15 250 50 0 empty empty empty 17 7 0 10 -262144 -1
-1;
#X connect 10 0 8 0;
#X connect 11 0 7 0;
#X connect 12 0 6 0;
#X connect 13 0 5 0;
#X connect 15 0 10 0;
#X connect 15 1 11 0;
#X connect 15 2 12 0;
#X connect 15 3 13 0;
#X connect 15 4 14 0;
#X connect 16 0 15 0;
#X connect 16 0 21 0;
#X connect 17 0 22 0;
#X connect 18 0 19 0;
#X connect 19 0 16 0;
#X connect 20 0 22 0;
#X connect 22 0 16 0;
#X restore 272 94 pd scaling;
#N canvas 754 207 647 339 initSend 1;
#X obj 195 125 bng 15 250 50 0 empty empty empty 17 7 0 10 -262144
-1 -1;
#X obj 262 125 bng 15 250 50 0 empty empty empty 17 7 0 10 -262144
-1 -1;
#X obj 323 124 bng 15 250 50 0 empty empty empty 17 7 0 10 -262144
-1 -1;
#X obj 408 125 bng 15 250 50 0 empty empty empty 17 7 0 10 -262144
-1 -1;
#X obj 476 125 bng 15 250 50 0 empty empty empty 17 7 0 10 -262144
-1 -1;
#X obj 195 144 s startAll;
#X obj 262 144 s stopAll;
#X obj 408 144 s noteShift;
#X obj 481 144 s noteDisturb;
#X obj 323 144 s stateSwitch;
#X msg 132 77 \; pd dsp 1 \;;
#X obj 476 92 r switchMode;
#X obj 77 77 r init;
#X text 73 29 Send messages on startup;
#X connect 0 0 5 0;
#X connect 1 0 6 0;
#X connect 2 0 9 0;
#X connect 3 0 7 0;
#X connect 4 0 8 0;
#X connect 11 0 4 0;
#X connect 12 0 0 0;
#X connect 12 0 2 0;
#X connect 12 0 10 0;
#X restore 266 62 pd initSend;
#X text 354 94 <- scale the whole sculpture;
#N canvas 172 219 1079 366 GenerativeContext 0;
#X obj 47 116 snapshot~;
#X obj 311 114 route 1 2 3 4 5 6 7 8 9 10;
#N canvas 122 206 1321 556 logic 0;
#X obj 887 103 s amp;
#X obj 594 118 spigot;
#X msg 627 87 1;
#X text 578 90 win ->;
#X msg 665 87 0;
#X obj 775 134 until;
#X msg 775 82 10;
#X obj 755 302 i;
#X obj 787 302 + 1;
#X obj 775 108 t f b;
#X msg 814 267 1;
#X obj 773 342 pack f f;
#X obj 775 160 t b b;
#X obj 665 56 r startAll;
#X obj 775 23 r noteDisturb;
#X msg 887 79 500;
#X obj 887 23 r init;
#X obj 651 467 s switchReverb;
#X obj 601 283 metro 5000;
#X obj 641 367 * 1000;
#X obj 640 348 + 1;
#X obj 641 328 random 30;
#X obj 643 403 + 30000;
#X obj 1022 260 snapshot~;
#X obj 1036 232 r sn;
#X floatatom 1022 286 5 0 0 0 - - -;
#X obj 1077 140 random 10;
#X obj 1075 163 / 10;
#X text 1079 118 initial phase;
#X obj 1022 357 s X-LFO;
#X obj 1188 111 metro 5000;
#X obj 1187 263 s switchMode;
#X obj 1022 188 osc~ 0.01;
#X obj 1228 195 * 1000;
#X obj 1227 176 + 1;
#X obj 1228 156 random 30;
#X obj 310 388 outlet;
#X obj 310 339 pack f f;
#X floatatom 391 306 5 0 0 0 - - -;
#X obj 627 24 r stateSwitch;
#X obj 311 146 until;
#X msg 311 94 10;
#X obj 311 224 i;
#X obj 343 224 + 1;
#X obj 311 120 t f b;
#X msg 370 189 1;
#X obj 311 172 t b b b;
#X obj 343 94 s sync;
#X obj 329 33 tgl 15 0 empty empty empty 17 7 0 10 -262144 -1 -1 0
1;
#X obj 312 68 metro 6000;
#X obj 428 149 tabread scale;
#X obj 428 306 +;
#X obj 443 227 + 36;
#X obj 443 201 * 12;
#X obj 443 175 random 3;
#X obj 413 280 f;
#X obj 413 256 bng 15 250 50 0 empty empty empty 17 7 0 10 -262144
-1 -1;
#X obj 427 67 bng 15 250 50 0 empty empty empty 17 7 0 10 -262144 -1
-1;
#X text 457 68 <- next step;
#X obj 427 99 t b b b;
#X obj 427 36 r noteShift;
#X obj 428 125 patches/randomNoRepeat 7;
#X obj 428 416 s X-pitch_change;
#X obj 472 351 random 20;
#X obj 472 331 bng 15 250 50 0 empty empty empty 17 7 0 10 -262144
-1 -1;
#X obj 428 391 +;
#X obj 225 271 s X-volume_change;
#X obj 66 46 r init;
#X obj 65 141 metro 50;
#X obj 66 201 t b b;
#X obj 128 167 +~ 1;
#X obj 128 141 osc~ 0.05;
#X obj 128 193 *~ 300;
#X obj 105 258 s sn;
#X obj 199 409 outlet~;
#X obj 165 334 +~;
#X obj 196 141 random 2;
#X obj 196 167 sel 0 1;
#X obj 215 245 line;
#X msg 196 219 3000 5000;
#X msg 215 193 50 5000;
#X obj 65 419 outlet;
#X obj 1230 231 + 60000;
#X obj 860 243 + 80;
#X obj 862 212 random 4;
#X obj 296 14 r onOff;
#X connect 1 0 61 0;
#X connect 2 0 1 1;
#X connect 4 0 1 1;
#X connect 5 0 12 0;
#X connect 6 0 9 0;
#X connect 7 0 8 0;
#X connect 7 0 11 0;
#X connect 8 0 7 1;
#X connect 9 0 5 0;
#X connect 9 1 10 0;
#X connect 10 0 7 1;
#X connect 11 0 36 0;
#X connect 12 0 7 0;
#X connect 12 1 84 0;
#X connect 13 0 4 0;
#X connect 14 0 6 0;
#X connect 15 0 0 0;
#X connect 16 0 15 0;
#X connect 16 0 18 0;
#X connect 16 0 26 0;
#X connect 16 0 30 0;
#X connect 18 0 21 0;
#X connect 18 0 17 0;
#X connect 19 0 22 0;
#X connect 20 0 19 0;
#X connect 21 0 20 0;
#X connect 22 0 18 1;
#X connect 23 0 25 0;
#X connect 24 0 23 0;
#X connect 25 0 29 0;
#X connect 26 0 27 0;
#X connect 27 0 32 1;
#X connect 30 0 31 0;
#X connect 30 0 35 0;
#X connect 32 0 23 0;
#X connect 33 0 82 0;
#X connect 34 0 33 0;
#X connect 35 0 34 0;
#X connect 37 0 36 0;
#X connect 39 0 2 0;
#X connect 39 0 41 0;
#X connect 40 0 46 0;
#X connect 41 0 44 0;
#X connect 42 0 43 0;
#X connect 42 0 37 0;
#X connect 43 0 42 1;
#X connect 44 0 40 0;
#X connect 44 1 45 0;
#X connect 45 0 42 1;
#X connect 46 0 42 0;
#X connect 46 1 1 0;
#X connect 46 2 54 0;
#X connect 48 0 49 0;
#X connect 48 0 68 0;
#X connect 48 0 30 0;
#X connect 49 0 41 0;
#X connect 49 0 47 0;
#X connect 49 0 76 0;
#X connect 50 0 55 1;
#X connect 51 0 64 0;
#X connect 51 0 65 0;
#X connect 51 0 37 1;
#X connect 52 0 51 1;
#X connect 52 0 56 0;
#X connect 53 0 52 0;
#X connect 54 0 53 0;
#X connect 55 0 51 0;
#X connect 55 0 38 0;
#X connect 56 0 55 0;
#X connect 57 0 59 0;
#X connect 59 1 41 0;
#X connect 59 2 61 0;
#X connect 60 0 57 0;
#X connect 61 0 50 0;
#X connect 63 0 65 1;
#X connect 64 0 63 0;
#X connect 65 0 62 0;
#X connect 67 0 49 0;
#X connect 67 0 68 0;
#X connect 68 0 69 0;
#X connect 69 0 81 0;
#X connect 69 1 73 0;
#X connect 70 0 72 0;
#X connect 71 0 70 0;
#X connect 72 0 75 0;
#X connect 75 0 74 0;
#X connect 76 0 77 0;
#X connect 77 0 79 0;
#X connect 77 1 80 0;
#X connect 78 0 75 1;
#X connect 78 0 66 0;
#X connect 79 0 78 0;
#X connect 80 0 78 0;
#X connect 82 0 30 1;
#X connect 83 0 11 1;
#X connect 84 0 83 0;
#X connect 85 0 48 0;
#X restore 48 61 pd logic;
#X text 125 63 <- main control & sync;
#X obj 47 143 s X-snapshot_change;
#X obj 230 193 patches/modul 16000 58 300 7;
#X obj 46 195 patches/modul 16500 56 800 6;
#X obj 50 168 patches/modul 19500 44 300 1;
#X obj 237 168 patches/modul 18500 48 400 2;
#X obj 423 165 patches/modul 18000 50 500 3;
#X obj 620 168 patches/modul 17500 52 600 4;
#X obj 802 168 patches/modul 17000 54 700 5;
#X obj 427 193 patches/modul 15500 60 400 8;
#X obj 623 193 patches/modul 20000 42 500 9;
#X obj 809 193 patches/modul 19000 46 600 10;
#X connect 0 0 4 0;
#X connect 0 0 5 0;
#X connect 0 0 6 0;
#X connect 0 0 7 0;
#X connect 0 0 8 0;
#X connect 0 0 9 0;
#X connect 0 0 10 0;
#X connect 0 0 11 0;
#X connect 0 0 12 0;
#X connect 0 0 13 0;
#X connect 0 0 14 0;
#X connect 1 0 7 1;
#X connect 1 1 8 1;
#X connect 1 2 9 1;
#X connect 1 3 10 1;
#X connect 1 4 11 1;
#X connect 1 5 6 1;
#X connect 1 6 5 1;
#X connect 1 7 12 1;
#X connect 1 8 13 1;
#X connect 1 9 14 1;
#X connect 2 0 0 0;
#X connect 2 1 0 0;
#X connect 2 2 1 0;
#X restore 212 125 pd GenerativeContext;
#X text 353 125 <- generate & sequence sounds;
#X text 355 63 <- initial messages;
#X text 350 11 <- press to start;
#N canvas 147 92 1280 754 Scultping_Layers 0;
#X obj 563 555 env~;
#N canvas 307 36 574 738 catchSounds 0;
#X obj 96 171 random 2;
#X obj 56 312 lop~;
#X obj 56 338 lop~;
#X obj 56 364 hip~;
#X obj 56 390 hip~;
#X obj 244 390 hip~;
#X obj 244 364 hip~;
#X obj 244 338 lop~;
#X obj 244 312 lop~;
#X obj 96 197 sel 0 1;
#X obj 115 275 line;
#X obj 312 152 random 2;
#X obj 312 178 sel 0 1;
#X obj 331 256 line;
#X obj 244 286 *~;
#X obj 43 286 *~;
#X msg 312 230 300 2500;
#X msg 331 204 1500 2500;
#X msg 115 223 1500 2500;
#X msg 96 249 300 2500;
#X obj 337 80 min 500;
#X obj 258 106 / 500;
#X obj 337 57 r amp;
#X obj 98 135 r sync;
#X obj 312 131 r sync;
#X obj 42 80 catch~ l_fx;
#X obj 243 80 catch~ r_fx;
#X obj 56 525 outlet~;
#X obj 244 523 outlet~;
#X obj 110 524 outlet~;
#X obj 299 521 outlet~;
#X obj 17 338 *~ 1;
#X obj 207 337 *~ 1;
#X obj 56 500 *~ 25;
#X obj 244 497 *~ 25;
#X obj 110 499 *~ 25;
#X obj 299 496 *~ 25;
#X obj 56 416 *~ 5;
#X obj 244 416 *~ 5;
#X connect 0 0 9 0;
#X connect 1 0 2 0;
#X connect 2 0 3 0;
#X connect 3 0 4 0;
#X connect 4 0 37 0;
#X connect 5 0 38 0;
#X connect 6 0 5 0;
#X connect 7 0 6 0;
#X connect 8 0 7 0;
#X connect 9 0 19 0;
#X connect 9 1 18 0;
#X connect 10 0 1 1;
#X connect 10 0 2 1;
#X connect 10 0 3 1;
#X connect 10 0 4 1;
#X connect 11 0 12 0;
#X connect 12 0 16 0;
#X connect 12 1 17 0;
#X connect 13 0 8 1;
#X connect 13 0 7 1;
#X connect 13 0 6 1;
#X connect 13 0 5 1;
#X connect 14 0 8 0;
#X connect 14 0 32 0;
#X connect 15 0 1 0;
#X connect 15 0 31 0;
#X connect 16 0 13 0;
#X connect 17 0 13 0;
#X connect 18 0 10 0;
#X connect 19 0 10 0;
#X connect 20 0 21 0;
#X connect 21 0 14 1;
#X connect 21 0 15 1;
#X connect 22 0 20 0;
#X connect 23 0 0 0;
#X connect 24 0 11 0;
#X connect 25 0 15 0;
#X connect 26 0 14 0;
#X connect 31 0 33 0;
#X connect 32 0 34 0;
#X connect 33 0 27 0;
#X connect 34 0 28 0;
#X connect 35 0 29 0;
#X connect 36 0 30 0;
#X connect 37 0 35 0;
#X connect 38 0 36 0;
#X restore 58 141 pd catchSounds;
#N canvas 15 98 781 670 presets 0;
#X obj -1 30 inlet;
#X msg -1 134 predelay 0 \, bandwidth 22050 \, damping 22050 \, decay
0.5 \, input_diffusion1 0.75 \, input_diffusion2 0.625 \, decay_diffusion1
0.7 \, decay_diffusion2 0.5 \, excursion 0.53761 \;;
#X msg 135 274 predelay 0 \, bandwidth 10000 \, damping 4637 \, decay
0.98 \, input_diffusion1 0.685 \, input_diffusion2 0.779 \, decay_diffusion1
0.74 \, decay_diffusion2 0.68 \, excursion 0 \,;
#X msg 87 213 predelay 0 \, bandwidth 10000 \, damping 4637 \, decay
0.98 \, input_diffusion1 0.685 \, input_diffusion2 0.779 \, decay_diffusion1
0.74 \, decay_diffusion2 0.68 \, excursion 0.53761 \,;
#X msg 206 350 predelay 10 \, bandwidth 10000 \, damping 4637 \, decay
0.99 \, input_diffusion1 0.685 \, input_diffusion2 0.779 \, decay_diffusion1
0.889 \, decay_diffusion2 0.84 \, excursion 0.53761 \;;
#X msg 340 525 predelay 216.535 \, bandwidth 22050 \, damping 22050
\, decay 0.677165 \, input_diffusion1 0.850394 \, input_diffusion2
0.92126 \, decay_diffusion1 0.80315 \, decay_diffusion2 0.818898 \,
excursion 0.11811 \;;
#X msg 272 437 predelay 10 \, bandwidth 10000 \, damping 4637 \, decay
0.99 \, input_diffusion1 0.685 \, input_diffusion2 0.779 \, decay_diffusion1
0.889 \, decay_diffusion2 0.84 \, excursion 0 \;;
#X obj -1 587 s \$0-reverb;
#X obj -1 69 route default large large_noexcursion huge huge_noexcursion
tadada smooth;
#X msg 345 134 predelay 0 \, bandwidth 6000 \, damping 7 \, decay 0.2
\, input_diffusion1 0.685 \, input_diffusion2 0.9 \, decay_diffusion1
0.89 \, decay_diffusion2 0.78 \, excursion 0.8 \,;
#X connect 0 0 8 0;
#X connect 1 0 7 0;
#X connect 2 0 7 0;
#X connect 3 0 7 0;
#X connect 4 0 7 0;
#X connect 5 0 7 0;
#X connect 6 0 7 0;
#X connect 8 0 1 0;
#X connect 8 1 3 0;
#X connect 8 2 2 0;
#X connect 8 3 4 0;
#X connect 8 4 6 0;
#X connect 8 5 5 0;
#X connect 8 6 9 0;
#X connect 9 0 7 0;
#X restore 630 222 pd presets;
#X msg 630 190 default;
#X msg 844 190 huge;
#X msg 881 190 huge_noexcursion;
#X msg 685 190 large;
#X msg 729 190 large_noexcursion;
#X msg 990 190 tadada;
#X obj 474 180 hsl 128 15 0 1 0 0 empty empty empty -2 -8 0 10 -262144
-1 -1 3810 1;
#X msg 471 199 dry \$1;
#X obj 526 199 r \$0-reverb;
#X msg 1037 191 smooth;
#X msg 471 160 0.3;
#X text 628 124 Reverb Presets (can be extreme);
#X text 56 117 Catch sounds;
#X obj 58 178 *~;
#X obj 85 179 *~;
#X obj 112 179 *~;
#X obj 139 179 *~;
#X obj 230 177 line~;
#X msg 230 145 1 3000;
#X msg 279 145 0 3000;
#X msg 385 178 1 2000;
#X obj 385 158 del 3000;
#X obj 685 160 r startSound;
#X msg 331 158 0.1 200;
#X obj 230 116 r startAll;
#X obj 308 112 r stopAll;
#X obj 331 134 r noteDisturb;
#X obj 59 229 patches/e_platereverb r1;
#X obj 83 499 *~ 2;
#X obj 122 499 *~ 2;
#X obj 850 152 bng 15 250 50 0 empty empty empty 17 7 0 10 -262144
-1 -1;
#X obj 869 152 bng 15 250 50 0 empty empty empty 17 7 0 10 -262144
-1 -1;
#X obj 889 152 bng 15 250 50 0 empty empty empty 17 7 0 10 -262144
-1 -1;
#X obj 908 152 bng 15 250 50 0 empty empty empty 17 7 0 10 -262144
-1 -1;
#X obj 927 152 bng 15 250 50 0 empty empty empty 17 7 0 10 -262144
-1 -1;
#X obj 850 132 route 0 1 2 3;
#X obj 843 105 random 4;
#X obj 1037 164 r stateSwitch;
#X obj 907 106 r switchReverb;
#X obj 941 129 s X-Reverb;
#X obj 630 160 r init;
#X obj 471 138 r init;
#X obj 616 445 catch~ out3;
#X obj 723 448 catch~ out2;
#X obj 840 446 catch~ out1;
#X obj 947 448 catch~ out0;
#X obj 537 491 +~;
#X obj 539 511 /~ 2;
#X obj 565 536 *~;
#X obj 722 484 *~;
#X obj 839 482 *~;
#X obj 945 478 *~;
#X obj 569 446 r init;
#X obj 623 515 *~;
#X obj 620 539 env~;
#X obj 723 507 env~;
#X obj 839 506 env~;
#X obj 944 506 env~;
#X obj 562 580 + 0.001;
#X obj 616 563 + 0.001;
#X obj 727 534 + 0.001;
#X obj 841 532 + 0.001;
#X obj 944 533 + 0.001;
#X obj 951 562 s env0;
#X obj 841 560 s env1;
#X obj 718 561 s env2;
#X obj 616 590 s env3;
#X obj 561 604 s env4;
#X msg 569 468 1;
#X obj 787 374 r layer;
#X obj 787 400 sel 0 1 2 3 4;
#X obj 83 529 throw~ masterL;
#X obj 175 530 throw~ masterR;
#X msg 190 468 0;
#X msg 145 468 2;
#X obj 993 606 throw~ masterL;
#X obj 1085 607 throw~ masterR;
#X obj 1085 566 *~;
#X msg 1141 530 0;
#X obj 788 630 throw~ masterL;
#X obj 880 631 throw~ masterR;
#X obj 862 605 *~;
#X msg 918 582 0;
#X obj 593 646 throw~ masterL;
#X obj 685 647 throw~ masterR;
#X obj 687 623 *~;
#X msg 744 596 0;
#X obj 335 660 throw~ masterL;
#X obj 427 661 throw~ masterR;
#X obj 443 638 *~;
#X msg 493 602 0;
#X msg 459 602 100;
#X msg 703 596 0.2;
#X msg 878 582 0.1;
#X msg 1101 530 0.01;
#X obj 241 205 s~ lineOut;
#X text 921 243 <-- select synthesis layers;
#X obj 843 374 inlet;
#X connect 0 0 61 0;
#X connect 1 0 16 0;
#X connect 1 1 17 0;
#X connect 1 2 18 0;
#X connect 1 3 19 0;
#X connect 3 0 2 0;
#X connect 4 0 2 0;
#X connect 5 0 2 0;
#X connect 6 0 2 0;
#X connect 7 0 2 0;
#X connect 8 0 2 0;
#X connect 9 0 10 0;
#X connect 10 0 30 2;
#X connect 11 0 30 2;
#X connect 12 0 2 0;
#X connect 13 0 9 0;
#X connect 16 0 30 0;
#X connect 17 0 31 0;
#X connect 18 0 30 1;
#X connect 19 0 32 0;
#X connect 20 0 19 1;
#X connect 20 0 18 1;
#X connect 20 0 17 1;
#X connect 20 0 16 1;
#X connect 20 0 98 0;
#X connect 21 0 20 0;
#X connect 22 0 20 0;
#X connect 23 0 20 0;
#X connect 24 0 23 0;
#X connect 25 0 6 0;
#X connect 26 0 20 0;
#X connect 27 0 21 0;
#X connect 28 0 22 0;
#X connect 29 0 26 0;
#X connect 29 0 24 0;
#X connect 30 0 31 0;
#X connect 30 0 49 0;
#X connect 30 1 32 0;
#X connect 30 1 49 1;
#X connect 31 0 74 0;
#X connect 32 0 75 0;
#X connect 33 0 6 0;
#X connect 34 0 4 0;
#X connect 35 0 8 0;
#X connect 36 0 12 0;
#X connect 38 0 33 0;
#X connect 38 1 34 0;
#X connect 38 2 35 0;
#X connect 38 3 36 0;
#X connect 38 4 37 0;
#X connect 39 0 38 0;
#X connect 39 0 42 0;
#X connect 40 0 12 0;
#X connect 41 0 39 0;
#X connect 43 0 6 0;
#X connect 44 0 13 0;
#X connect 45 0 56 0;
#X connect 46 0 52 0;
#X connect 47 0 53 0;
#X connect 48 0 54 0;
#X connect 49 0 50 0;
#X connect 50 0 51 0;
#X connect 51 0 0 0;
#X connect 52 0 58 0;
#X connect 52 0 88 0;
#X connect 53 0 59 0;
#X connect 53 0 84 0;
#X connect 54 0 60 0;
#X connect 54 0 80 0;
#X connect 55 0 71 0;
#X connect 56 0 57 0;
#X connect 56 0 92 0;
#X connect 57 0 62 0;
#X connect 58 0 63 0;
#X connect 59 0 64 0;
#X connect 60 0 65 0;
#X connect 61 0 70 0;
#X connect 62 0 69 0;
#X connect 63 0 68 0;
#X connect 64 0 67 0;
#X connect 65 0 66 0;
#X connect 71 0 51 1;
#X connect 71 0 52 1;
#X connect 71 0 53 1;
#X connect 71 0 54 1;
#X connect 71 0 56 1;
#X connect 72 0 73 0;
#X connect 73 0 76 0;
#X connect 73 0 97 0;
#X connect 73 0 85 0;
#X connect 73 0 89 0;
#X connect 73 0 93 0;
#X connect 73 1 76 0;
#X connect 73 1 81 0;
#X connect 73 1 96 0;
#X connect 73 1 89 0;
#X connect 73 1 93 0;
#X connect 73 2 76 0;
#X connect 73 2 81 0;
#X connect 73 2 85 0;
#X connect 73 2 95 0;
#X connect 73 2 93 0;
#X connect 73 3 76 0;
#X connect 73 3 81 0;
#X connect 73 3 85 0;
#X connect 73 3 89 0;
#X connect 73 3 94 0;
#X connect 73 4 77 0;
#X connect 73 4 81 0;
#X connect 73 4 85 0;
#X connect 73 4 89 0;
#X connect 73 4 93 0;
#X connect 76 0 32 1;
#X connect 76 0 31 1;
#X connect 77 0 32 1;
#X connect 77 0 31 1;
#X connect 80 0 79 0;
#X connect 80 0 78 0;
#X connect 81 0 80 1;
#X connect 84 0 83 0;
#X connect 84 0 82 0;
#X connect 85 0 84 1;
#X connect 88 0 87 0;
#X connect 88 0 86 0;
#X connect 89 0 88 1;
#X connect 92 0 91 0;
#X connect 92 0 90 0;
#X connect 93 0 92 1;
#X connect 94 0 92 1;
#X connect 95 0 88 1;
#X connect 96 0 84 1;
#X connect 97 0 80 1;
#X connect 100 0 73 0;
#X restore 220 242 pd Scultping_Layers;
#X text 357 241 <- switch between layers;
#X obj 321 158 vradio 15 1 0 5 empty empty empty 0 -8 0 10 -262144
-1 -1 0;
#X text 378 156 - source;
#X text 378 172 - layer 1;
#X text 378 189 - layer 2;
#X text 379 204 - layer 3;
#X text 378 220 - layer 4;
#N canvas 412 157 351 284 output 0;
#X obj 80 162 dac~;
#X obj 80 65 catch~ masterL;
#X obj 180 65 catch~ masterR;
#X obj 80 114 *~;
#X obj 110 114 *~;
#X obj 96 86 r~ lineOut;
#X obj 80 138 *~ 0.4;
#X obj 125 139 *~ 0.4;
#X connect 1 0 3 0;
#X connect 2 0 4 0;
#X connect 3 0 6 0;
#X connect 4 0 7 0;
#X connect 5 0 3 1;
#X connect 5 0 4 1;
#X connect 6 0 0 0;
#X connect 7 0 0 1;
#X restore 280 272 pd output;
#X text 359 272 <- sculpted result;
#X text 193 315 ------------------------------------------------------------
;
#X text 349 -13 FLUX;
#X text 305 335 (c) Agoston Nagy 2013;
#X text 217 360 This patch is a cleaned up sound engine of the freely
available Flux App for android. Tested with Pd-Vanilla 0.44 \, Pd-Extended
0.43.3;
#X text 324 495 Share the Source!;
#X text 216 413 It incarnates several brilliant useful objects from
the RJDJ team \, also includes some patch fragments that are freely
available on the Pd forums. It would not be possible to build Flux
without the Pd community. Thanx &;
#X connect 1 0 0 0;
#X connect 11 0 9 0;
